<svg width="20" height="18" viewBox="0 0 20 18" fill="none" xmlns="http://www.w3.org/2000/svg">
<path d="M3.12507 0H18.1251C18.4376 0 18.7501 0.3125 18.7501 0.625C18.7501 0.976562 18.4376 1.25 18.1251 1.25H3.12507C2.07038 1.25 1.25007 2.10938 1.25007 3.125V14.375C1.25007 15.4297 2.07038 16.25 3.12507 16.25H16.8751C17.8907 16.25 18.7501 15.4297 18.7501 14.375V5.625C18.7501 4.60938 17.8907 3.75 16.8751 3.75H4.37507C4.02351 3.75 3.75007 3.47656 3.75007 3.125C3.75007 2.8125 4.02351 2.5 4.37507 2.5H16.8751C18.5938 2.5 20.0001 3.90625 20.0001 5.625V14.375C20.0001 16.1328 18.5938 17.5 16.8751 17.5H3.12507C1.36726 17.5 6.86646e-05 16.1328 6.86646e-05 14.375V3.125C6.86646e-05 1.40625 1.36726 0 3.12507 0ZM15.0001 10.9375C14.4532 10.9375 14.0626 10.5469 14.0626 10C14.0626 9.49219 14.4532 9.0625 15.0001 9.0625C15.5079 9.0625 15.9376 9.49219 15.9376 10C15.9376 10.5469 15.5079 10.9375 15.0001 10.9375Z" fill="#D9D9D9"/>
</svg>
