<svg width="23" height="21" viewBox="0 0 23 21" fill="none" xmlns="http://www.w3.org/2000/svg">
<path opacity="0.7" d="M11.7186 0.195312L22.3436 9.57031C22.6171 9.80469 22.6171 10.1953 22.4218 10.4688C22.1874 10.7422 21.7968 10.7422 21.5233 10.5078L20.078 9.21875V16.9141C20.078 18.6719 18.6718 20.0391 16.953 20.0391H5.70301C3.9452 20.0391 2.57801 18.6719 2.57801 16.9141V9.21875L1.09364 10.5078C0.859262 10.7422 0.429575 10.7422 0.234262 10.4688C-0.000112534 10.1953 -0.000112534 9.80469 0.273325 9.57031L10.8983 0.195312C11.1327 0 11.4843 0 11.7186 0.195312ZM3.82801 16.9141C3.82801 17.9688 4.64832 18.7891 5.70301 18.7891H8.20301V12.5391C8.20301 11.875 8.74989 11.2891 9.45301 11.2891H13.203C13.8671 11.2891 14.453 11.875 14.453 12.5391V18.7891H16.953C17.9686 18.7891 18.828 17.9688 18.828 16.9141V8.125L11.328 1.52344L3.82801 8.125V16.9141ZM9.45301 18.7891H13.203V12.5391H9.45301V18.7891Z" fill="#F3F6FA"/>
</svg>
