<svg width="22" height="23" viewBox="0 0 22 23" fill="none" xmlns="http://www.w3.org/2000/svg">
<path d="M15.808 8.61454L5.66941 2.99204M0.904257 5.97121L10.7387 11.442L20.5732 5.97121M10.7387 22.3512V11.4312M20.8774 15.7645V7.09788C20.877 6.71792 20.7727 6.34475 20.5749 6.0158C20.3772 5.68685 20.093 5.41369 19.7509 5.22371L11.8652 0.890376C11.5227 0.700211 11.1342 0.600098 10.7387 0.600098C10.3432 0.600098 9.95472 0.700211 9.61222 0.890376L1.72661 5.22371C1.38445 5.41369 1.10025 5.68685 0.902524 6.0158C0.704799 6.34475 0.600503 6.71792 0.600098 7.09788V15.7645C0.600503 16.1445 0.704799 16.5177 0.902524 16.8466C1.10025 17.1756 1.38445 17.4487 1.72661 17.6387L9.61222 21.972C9.95472 22.1622 10.3432 22.2623 10.7387 22.2623C11.1342 22.2623 11.5227 22.1622 11.8652 21.972L19.7509 17.6387C20.093 17.4487 20.3772 17.1756 20.5749 16.8466C20.7727 16.5177 20.877 16.1445 20.8774 15.7645Z" stroke="#D9D9D9" stroke-width="1.2" stroke-linecap="round" stroke-linejoin="round"/>
</svg>
