<svg width="20" height="18" viewBox="0 0 20 18" fill="none" xmlns="http://www.w3.org/2000/svg">
<path d="M6.25007 1.25C5.54694 1.25 5.00007 1.83594 5.00007 2.5V15C5.00007 15.4688 4.84382 15.8984 4.64851 16.25H16.8751C17.8907 16.25 18.7501 15.4297 18.7501 14.375V2.5C18.7501 1.83594 18.1641 1.25 17.5001 1.25H6.25007ZM2.50007 17.5C1.09382 17.5 6.86646e-05 16.4062 6.86646e-05 15V5C6.86646e-05 3.63281 1.09382 2.5 2.50007 2.5V3.75C1.79694 3.75 1.25007 4.33594 1.25007 5V15C1.25007 15.7031 1.79694 16.25 2.50007 16.25C3.16413 16.25 3.75007 15.7031 3.75007 15V2.5C3.75007 1.13281 4.84382 0 6.25007 0H17.5001C18.8673 0 20.0001 1.13281 20.0001 2.5V14.375C20.0001 16.1328 18.5938 17.5 16.8751 17.5H2.50007ZM15.0001 3.125C15.0001 2.8125 15.2735 2.5 15.6251 2.5H16.8751C17.1876 2.5 17.5001 2.8125 17.5001 3.125C17.5001 3.47656 17.1876 3.75 16.8751 3.75H15.6251C15.2735 3.75 15.0001 3.47656 15.0001 3.125ZM15.0001 5.625C15.0001 5.3125 15.2735 5 15.6251 5H16.8751C17.1876 5 17.5001 5.3125 17.5001 5.625C17.5001 5.97656 17.1876 6.25 16.8751 6.25H15.6251C15.2735 6.25 15.0001 5.97656 15.0001 5.625ZM15.0001 8.125C15.0001 7.8125 15.2735 7.5 15.6251 7.5H16.8751C17.1876 7.5 17.5001 7.8125 17.5001 8.125C17.5001 8.47656 17.1876 8.75 16.8751 8.75H15.6251C15.2735 8.75 15.0001 8.47656 15.0001 8.125ZM6.25007 10.625C6.25007 10.3125 6.52351 10 6.87507 10H16.8751C17.1876 10 17.5001 10.3125 17.5001 10.625C17.5001 10.9766 17.1876 11.25 16.8751 11.25H6.87507C6.52351 11.25 6.25007 10.9766 6.25007 10.625ZM6.25007 13.125C6.25007 12.8125 6.52351 12.5 6.87507 12.5H16.8751C17.1876 12.5 17.5001 12.8125 17.5001 13.125C17.5001 13.4766 17.1876 13.75 16.8751 13.75H6.87507C6.52351 13.75 6.25007 13.4766 6.25007 13.125ZM7.50007 7.5H12.5001V3.75H7.50007V7.5ZM6.25007 3.4375C6.25007 2.92969 6.64069 2.5 7.18757 2.5H12.8126C13.3204 2.5 13.7501 2.92969 13.7501 3.4375V7.8125C13.7501 8.35938 13.3204 8.75 12.8126 8.75H7.18757C6.64069 8.75 6.25007 8.35938 6.25007 7.8125V3.4375Z" fill="#D9D9D9"/>
</svg>
