<svg width="39" height="27" viewBox="0 0 39 27" fill="none" xmlns="http://www.w3.org/2000/svg">
<path d="M9.69782 20.2097H7.13086V26.7576H9.69782V20.2097Z" fill="#FE9600"/>
<path d="M7.55021 23.4715C7.40666 23.5526 7.26697 23.6381 7.13086 23.7272V26.7575H9.69782V22.6809C8.93721 22.8301 8.21143 23.098 7.55021 23.4715Z" fill="#FE9600"/>
<path d="M14.1662 17.5417H11.6943V26.6361H14.1662V17.5417Z" fill="#FE9600"/>
<path d="M18.777 15.521H16.3052V26.5959H18.777V15.521Z" fill="#FE9600"/>
<path d="M23.008 12.6108H20.5361V26.6363H23.008V12.6108Z" fill="#FE9600"/>
<path d="M28.0944 8.52832H25.6226V26.5553H28.0944V8.52832Z" fill="#FE9600"/>
<path d="M13.7537 22.8955C13.0719 22.7833 12.3876 22.6288 11.6943 22.5691V26.636H14.1662V22.9599C14.0282 22.9397 13.8906 22.918 13.7537 22.8955Z" fill="#FE9600"/>
<path d="M16.3077 23.0761C16.3069 23.0762 16.306 23.0762 16.3052 23.0762V26.5957H18.777V22.3879C18.0325 22.7756 17.2049 23.0083 16.3077 23.0761Z" fill="#FE9600"/>
<path d="M21.3142 20.2206C21.0659 20.5059 20.809 20.7887 20.5361 21.0596V26.6362H23.008V18.1187C22.4445 18.8208 21.9067 19.54 21.3142 20.2206Z" fill="#FE9600"/>
<path d="M26.7225 14.9712C26.3346 15.1059 25.9669 15.3009 25.6226 15.5298V26.5552H28.0944V14.7263C27.6299 14.7368 27.1715 14.8153 26.7225 14.9712Z" fill="#FE9600"/>
<path d="M34.7959 3.77816L33.5132 1.88904L32.2305 0L30.9477 1.88904L29.665 3.77816H30.9945V26.5958H33.4664V3.77816H34.7959Z" fill="#FE9600"/>
<path d="M38.0054 26.9998H0.261478C0.117665 26.9998 0 26.8998 0 26.7775C0 26.6552 0.117665 26.5552 0.261478 26.5552H38.0054C38.1492 26.5552 38.2668 26.6552 38.2668 26.7775C38.2668 26.8998 38.1492 26.9998 38.0054 26.9998Z" fill="#FE9600"/>
</svg>
