<svg width="18" height="20" viewBox="0 0 18 20" fill="none" xmlns="http://www.w3.org/2000/svg">
<path d="M8.9 14.2857C9.25 14.2857 9.54583 14.1706 9.7875 13.9405C10.0292 13.7103 10.15 13.4286 10.15 13.0952C10.15 12.7619 10.0292 12.4802 9.7875 12.25C9.54583 12.0198 9.25 11.9048 8.9 11.9048C8.55 11.9048 8.25417 12.0198 8.0125 12.25C7.77083 12.4802 7.65 12.7619 7.65 13.0952C7.65 13.4286 7.77083 13.7103 8.0125 13.9405C8.25417 14.1706 8.55 14.2857 8.9 14.2857ZM8 10.619H9.85C9.85 10.3492 9.8625 10.119 9.8875 9.92857C9.9125 9.7381 9.96667 9.55556 10.05 9.38095C10.1333 9.20635 10.2375 9.04365 10.3625 8.89286C10.4875 8.74206 10.6667 8.55556 10.9 8.33333C11.4833 7.77778 11.8958 7.31349 12.1375 6.94048C12.3792 6.56746 12.5 6.14286 12.5 5.66667C12.5 4.8254 12.2 4.14683 11.6 3.63095C11 3.11508 10.1917 2.85714 9.175 2.85714C8.25833 2.85714 7.47917 3.07143 6.8375 3.5C6.19583 3.92857 5.75 4.52381 5.5 5.28571L7.15 5.90476C7.26667 5.47619 7.5 5.13095 7.85 4.86905C8.2 4.60714 8.60833 4.47619 9.075 4.47619C9.525 4.47619 9.9 4.59127 10.2 4.82143C10.5 5.05159 10.65 5.35714 10.65 5.7381C10.65 6.00794 10.5583 6.29365 10.375 6.59524C10.1917 6.89683 9.88333 7.23016 9.45 7.59524C9.16667 7.81746 8.9375 8.03571 8.7625 8.25C8.5875 8.46429 8.44167 8.69048 8.325 8.92857C8.20833 9.16667 8.125 9.41667 8.075 9.67857C8.025 9.94048 8 10.254 8 10.619ZM9 20L6 17.1429H2C1.45 17.1429 0.979167 16.9564 0.5875 16.5833C0.195833 16.2103 0 15.7619 0 15.2381V1.90476C0 1.38095 0.195833 0.93254 0.5875 0.559524C0.979167 0.186508 1.45 0 2 0H16C16.55 0 17.0208 0.186508 17.4125 0.559524C17.8042 0.93254 18 1.38095 18 1.90476V15.2381C18 15.7619 17.8042 16.2103 17.4125 16.5833C17.0208 16.9564 16.55 17.1429 16 17.1429H12L9 20ZM2 15.2381H6.8L9 17.3333L11.2 15.2381H16V1.90476H2V15.2381Z" fill="#4E1A6F"/>
</svg>
