<svg width="16" height="15" viewBox="0 0 16 15" fill="none" xmlns="http://www.w3.org/2000/svg">
<path d="M0.0409269 14.7223V4.35865H3.34029V14.7223H0.0409269ZM1.69398 3.15091C1.23068 3.15091 0.832594 2.99798 0.499734 2.69211C0.166874 2.38174 0.000443924 2.00839 0.000443924 1.57208C0.000443924 1.14026 0.166874 0.771413 0.499734 0.465543C0.832594 0.155173 1.23068 -1.19209e-05 1.69398 -1.19209e-05C2.16178 -1.19209e-05 2.55987 0.155173 2.88823 0.465543C3.22109 0.771413 3.38752 1.14026 3.38752 1.57208C3.38752 2.00839 3.22109 2.38174 2.88823 2.69211C2.55987 2.99798 2.16178 3.15091 1.69398 3.15091ZM8.7397 8.81178V14.7223H5.44034V4.35865H8.57777V6.26135H8.69247C8.92188 5.62712 9.31321 5.13008 9.86648 4.77023C10.4197 4.40588 11.0787 4.22371 11.8434 4.22371C12.5721 4.22371 13.2041 4.38789 13.7393 4.71625C14.2791 5.04012 14.6974 5.49442 14.9943 6.07918C15.2957 6.65943 15.4441 7.33865 15.4396 8.11682V14.7223H12.1403V8.76455C12.1448 8.18879 11.9986 7.73898 11.7017 7.41512C11.4093 7.09125 11.0022 6.92932 10.4805 6.92932C10.1341 6.92932 9.82824 7.00579 9.56286 7.15872C9.30197 7.30716 9.09955 7.52082 8.95561 7.7997C8.81617 8.07859 8.7442 8.41595 8.7397 8.81178Z" fill="white"/>
</svg>
