<svg width="17" height="14" viewBox="0 0 17 14" fill="none" xmlns="http://www.w3.org/2000/svg">
<path d="M17 1.65753C16.3751 1.93903 15.7032 2.128 14.9973 2.21353C15.718 1.77624 16.27 1.08407 16.5315 0.257926C15.8579 0.663799 15.1105 0.957947 14.3156 1.11637C13.6805 0.429439 12.7737 0 11.7707 0C9.84474 0 8.28379 1.5829 8.28379 3.53415C8.28379 3.81171 8.31474 4.07968 8.37324 4.33935C5.47518 4.19184 2.90483 2.78438 1.18533 0.646341C0.885607 1.1683 0.712643 1.77537 0.712643 2.42302C0.712643 3.64849 1.3299 4.73038 2.26427 5.36451C1.69322 5.34618 1.15481 5.18732 0.684659 4.92285C0.684659 4.93768 0.684659 4.95252 0.684659 4.96693C0.684659 5.4195 0.770297 5.85024 0.923339 6.24782C1.3494 7.35634 2.30835 8.1934 3.48267 8.43387C3.1893 8.5133 2.88194 8.55781 2.56272 8.55781C2.33888 8.55781 2.12055 8.53555 1.90688 8.49366C2.3516 9.89763 3.6391 10.9202 5.16486 10.9481C3.97105 11.8969 2.46818 12.4616 0.833041 12.4616C0.551121 12.4616 0.274289 12.445 0 12.4123C1.54484 13.4148 3.3788 14 5.34673 14C10.799 14 14.1494 10.1115 15.0329 6.07806C15.1894 5.36538 15.2699 4.64703 15.2699 3.94439C15.2699 3.79207 15.2669 3.63845 15.2606 3.48702C15.9418 2.98906 16.5337 2.36672 17 1.65753Z" fill="white"/>
</svg>
